<svg id="Layer_1" enable-background="new 0 0 450 450" height="512" viewBox="0 0 450 450" width="512" fill="#ffffff" xmlns="http://www.w3.org/2000/svg"><g><g><path d="m421.8 446.7h-303c-12.8 0-23.2-10.4-23.2-23.2v-286.4c0-12.8 10.4-23.2 23.2-23.2h303c12.8 0 23.2 10.4 23.2 23.2v286.4c0 12.9-10.4 23.2-23.2 23.2zm-302.9-322.7c-7.3 0-13.2 5.9-13.2 13.2v286.4c0 7.3 5.9 13.2 13.2 13.2h303c7.3 0 13.2-5.9 13.2-13.2v-286.5c0-7.3-5.9-13.2-13.2-13.2h-303z"/></g><g><path d="m440 192.5h-339.3c-2.8 0-5-2.2-5-5s2.2-5 5-5h339.3c2.8 0 5 2.2 5 5s-2.3 5-5 5z"/></g><g><path d="m152.9 173.6c-11.3 0-20.4-9.2-20.4-20.4s9.2-20.4 20.4-20.4 20.4 9.2 20.4 20.4-9.2 20.4-20.4 20.4zm0-30.8c-5.7 0-10.4 4.7-10.4 10.4s4.7 10.4 10.4 10.4 10.4-4.7 10.4-10.4-4.7-10.4-10.4-10.4z"/></g><g><path d="m201.7 173.6c-11.3 0-20.4-9.2-20.4-20.4s9.2-20.4 20.4-20.4 20.4 9.2 20.4 20.4-9.1 20.4-20.4 20.4zm0-30.8c-5.7 0-10.4 4.7-10.4 10.4s4.7 10.4 10.4 10.4 10.4-4.7 10.4-10.4-4.6-10.4-10.4-10.4z"/></g><g><path d="m250.6 173.6c-11.3 0-20.4-9.2-20.4-20.4s9.2-20.4 20.4-20.4c11.3 0 20.4 9.2 20.4 20.4s-9.1 20.4-20.4 20.4zm0-30.8c-5.7 0-10.4 4.7-10.4 10.4s4.7 10.4 10.4 10.4 10.4-4.6 10.4-10.4-4.6-10.4-10.4-10.4z"/></g><g><path d="m403.2 158.2h-92.5c-2.8 0-5-2.2-5-5s2.2-5 5-5h92.5c2.8 0 5 2.2 5 5s-2.2 5-5 5z"/></g><g><path d="m100.7 337.5h-72c-12.8 0-23.2-10.4-23.2-23.2v-286.4c0-12.8 10.4-23.2 23.2-23.2h303c12.8 0 23.2 10.4 23.2 23.2v91.1c0 2.8-2.2 5-5 5s-5-2.2-5-5v-91.1c0-7.3-5.9-13.2-13.2-13.2h-303c-7.3 0-13.2 5.9-13.2 13.2v286.4c0 7.3 5.9 13.2 13.2 13.2h72c2.8 0 5 2.2 5 5s-2.2 5-5 5z"/></g><g><path d="m349.8 83.3h-339.3c-2.8 0-5-2.2-5-5s2.2-5 5-5h339.3c2.8 0 5 2.2 5 5s-2.2 5-5 5z"/></g><g><path d="m62.7 64.4c-11.3 0-20.4-9.2-20.4-20.4s9.2-20.4 20.4-20.4 20.4 9.1 20.4 20.4-9.1 20.4-20.4 20.4zm0-30.8c-5.7 0-10.4 4.7-10.4 10.4s4.7 10.4 10.4 10.4 10.4-4.7 10.4-10.4-4.7-10.4-10.4-10.4z"/></g><g><path d="m111.6 64.4c-11.3 0-20.4-9.2-20.4-20.4s9.2-20.4 20.4-20.4 20.4 9.1 20.4 20.4-9.2 20.4-20.4 20.4zm0-30.8c-5.7 0-10.4 4.7-10.4 10.4s4.7 10.4 10.4 10.4 10.4-4.7 10.4-10.4-4.7-10.4-10.4-10.4z"/></g><g><path d="m160.5 64.4c-11.3 0-20.4-9.2-20.4-20.4s9.2-20.4 20.4-20.4 20.4 9.2 20.4 20.4-9.2 20.4-20.4 20.4zm0-30.8c-5.7 0-10.4 4.7-10.4 10.4s4.7 10.4 10.4 10.4 10.4-4.7 10.4-10.4-4.7-10.4-10.4-10.4z"/></g><g><path d="m313.1 49h-92.5c-2.8 0-5-2.2-5-5s2.2-5 5-5h92.5c2.8 0 5 2.2 5 5s-2.3 5-5 5z"/></g><g><path d="m333.8 394.4h-36.1c-2.8 0-5-2.2-5-5s2.2-5 5-5h36.1c9.8 0 17.7-7.9 17.7-17.7v-104.2c0-9.8-7.9-17.7-17.7-17.7h-36.1c-2.8 0-5-2.2-5-5s2.2-5 5-5h36.1c15.3 0 27.7 12.4 27.7 27.7v104.2c0 15.3-12.4 27.7-27.7 27.7z"/></g><g><path d="m356.5 319.6h-63.7c-2.8 0-5-2.2-5-5s2.2-5 5-5h63.7c2.8 0 5 2.2 5 5s-2.2 5-5 5z"/></g><g><path d="m285.4 270.3h-88.9c-9.6 0-17.3-7.8-17.3-17.3v-26.4c0-9.6 7.8-17.3 17.3-17.3h88.9c9.6 0 17.3 7.8 17.3 17.3v26.4c0 9.5-7.7 17.3-17.3 17.3zm-88.9-51c-4 0-7.3 3.3-7.3 7.3v26.4c0 4 3.3 7.3 7.3 7.3h88.9c4 0 7.3-3.3 7.3-7.3v-26.4c0-4-3.3-7.3-7.3-7.3z"/></g><g><path d="m282.8 340.4h-72.3c-8.3 0-15-6.7-15-15v-21.5c0-8.3 6.7-15 15-15h72.3c8.3 0 15 6.7 15 15v21.5c0 8.2-6.7 15-15 15zm-72.2-41.5c-2.8 0-5 2.3-5 5v21.5c0 2.8 2.3 5 5 5h72.3c2.8 0 5-2.3 5-5v-21.5c0-2.8-2.3-5-5-5z"/></g><g><path d="m285.4 420h-88.9c-9.6 0-17.3-7.8-17.3-17.3v-26.4c0-9.6 7.8-17.3 17.3-17.3h88.9c9.6 0 17.3 7.8 17.3 17.3v26.4c0 9.5-7.7 17.3-17.3 17.3zm-88.9-51.1c-4 0-7.3 3.3-7.3 7.3v26.4c0 4 3.3 7.3 7.3 7.3h88.9c4 0 7.3-3.3 7.3-7.3v-26.4c0-4-3.3-7.3-7.3-7.3z"/></g><g><path d="m272.6 236.2h-63.4c-2.8 0-5-2.2-5-5s2.2-5 5-5h63.4c2.8 0 5 2.2 5 5s-2.2 5-5 5z"/></g><g><path d="m263 253.4h-44c-2.8 0-5-2.2-5-5s2.2-5 5-5h44c2.8 0 5 2.2 5 5s-2.3 5-5 5z"/></g><g><path d="m278.4 319.6h-63.4c-2.8 0-5-2.2-5-5s2.2-5 5-5h63.4c2.8 0 5 2.2 5 5s-2.3 5-5 5z"/></g><g><path d="m272.6 385.9h-63.4c-2.8 0-5-2.2-5-5s2.2-5 5-5h63.4c2.8 0 5 2.2 5 5s-2.2 5-5 5z"/></g><g><path d="m263 403h-44c-2.8 0-5-2.2-5-5s2.2-5 5-5h44c2.8 0 5 2.2 5 5s-2.3 5-5 5z"/></g></g></svg>