<?xml version="1.0" encoding="UTF-8"?>
<svg xmlns="http://www.w3.org/2000/svg" viewBox="0 0 64 64" width="512" height="512" fill="#ffffff"><g id="internet-cloud-computer-samrtphone-laptop"><path d="M59,2H45a3.009,3.009,0,0,0-3,3v8a3.009,3.009,0,0,0,3,3h4v2H47v2H57V18H55V16h4a3.009,3.009,0,0,0,3-3V5A3.009,3.009,0,0,0,59,2ZM53,18H51V16h2Zm7-5a1,1,0,0,1-1,1H45a1,1,0,0,1-1-1V12H60Zm0-3H44V5a1,1,0,0,1,1-1H59a1,1,0,0,1,1,1Z"/><path d="M61,56V49a3.009,3.009,0,0,0-3-3H46a3.009,3.009,0,0,0-3,3v7a1,1,0,0,0-1,1v2a3.009,3.009,0,0,0,3,3H59a3.009,3.009,0,0,0,3-3V57A1,1,0,0,0,61,56ZM45,49a1,1,0,0,1,1-1H58a1,1,0,0,1,1,1v7H45ZM60,59a1,1,0,0,1-1,1H45a1,1,0,0,1-1-1V58H60Z"/><path d="M17,48H16V47a3.009,3.009,0,0,0-3-3H5a3.009,3.009,0,0,0-3,3V59a3.009,3.009,0,0,0,3,3H17a3.009,3.009,0,0,0,3-3V51A3.009,3.009,0,0,0,17,48ZM10.18,60H5a1,1,0,0,1-1-1V47a1,1,0,0,1,1-1h8a1,1,0,0,1,1,1v1H13a3.009,3.009,0,0,0-3,3v8A3,3,0,0,0,10.18,60ZM18,59a1,1,0,0,1-1,1H13a1,1,0,0,1-1-1V51a1,1,0,0,1,1-1h4a1,1,0,0,1,1,1Z"/><path d="M23.92,8.08a4.985,4.985,0,0,0-6.3-3.88A5.916,5.916,0,0,0,13,2,6.024,6.024,0,0,0,7.33,6.04,6,6,0,0,0,8,18H23a5,5,0,0,0,.92-9.92ZM23,16H8a4.006,4.006,0,0,1-.09-8.01.777.777,0,0,0,.16.02,1.019,1.019,0,0,0,1.01-.8,3.99,3.99,0,0,1,7.33-1.28.981.981,0,0,0,1.29.38A2.977,2.977,0,0,1,22,9a1,1,0,0,0,1,1,3,3,0,0,1,0,6Z"/><path d="M32,24a15.893,15.893,0,0,0-11.307,4.693l1.414,1.414a13.969,13.969,0,0,1,19.786,0l1.414-1.414A15.893,15.893,0,0,0,32,24Z"/><path d="M23.515,31.511l1.411,1.418a10.007,10.007,0,0,1,14.148,0l1.411-1.418a12.008,12.008,0,0,0-16.97,0Z"/><path d="M26.343,34.343l1.414,1.414a6,6,0,0,1,8.486,0l1.414-1.414a8,8,0,0,0-11.314,0Z"/><path d="M32,36a3,3,0,1,0,3,3A3,3,0,0,0,32,36Zm0,4a1,1,0,1,1,1-1A1,1,0,0,1,32,40Z"/><path d="M53,29V22H51v6H46.44a14.978,14.978,0,0,0-28.88,0H13V20H11v9a1,1,0,0,0,1,1h5.15a13.408,13.408,0,0,0,0,4H12a1,1,0,0,0-1,1v7h2V36h4.56a14.978,14.978,0,0,0,28.88,0H51v8h2V35a1,1,0,0,0-1-1H46.85a13.408,13.408,0,0,0,0-4H52A1,1,0,0,0,53,29ZM32,45A13,13,0,1,1,45,32,13.012,13.012,0,0,1,32,45Z"/></g></svg>
