<svg id="Layer_1" enable-background="new 0 0 500 500" viewBox="0 0 500 500" xmlns="http://www.w3.org/2000/svg" fill="#ffffff"><g><path d="m220.241 303.009c-2.258 0-4.276-1.405-5.055-3.522l-25.187-68.081c-1.037-2.792.392-5.892 3.184-6.926 2.78-1.028 5.893.393 6.925 3.186l20.134 54.413 20.133-54.413c1.036-2.795 4.149-4.216 6.925-3.186 2.792 1.034 4.22 4.134 3.184 6.926l-25.187 68.081c-.782 2.117-2.799 3.522-5.056 3.522z"/><path d="m294.435 270.837h-27.854c-2.978 0-5.391-2.413-5.391-5.391v-35.909c0-2.978 2.413-5.392 5.391-5.392h27.854c8.769 0 15.905 7.136 15.905 15.905v14.883c0 8.769-7.136 15.904-15.905 15.904zm-22.463-10.783h22.463c2.826 0 5.121-2.297 5.121-5.122v-14.883c0-2.824-2.296-5.121-5.121-5.121h-22.463z"/><path d="m304.944 303.009c-1.222 0-2.451-.413-3.458-1.26l-29.514-24.748v20.616c0 2.978-2.413 5.391-5.391 5.391s-5.391-2.413-5.391-5.391v-32.172c0-2.095 1.213-3.999 3.113-4.886 1.9-.878 4.132-.59 5.741.754l38.367 32.171c2.283 1.915 2.582 5.313.67 7.596-1.067 1.274-2.595 1.929-4.137 1.929z"/><path d="m441.738 188.136h-383.471c-2.978 0-5.391-2.413-5.391-5.391s2.413-5.391 5.391-5.391h383.471c2.978 0 5.391 2.413 5.391 5.391s-2.413 5.391-5.391 5.391z"/><path d="m388.604 375.51h-92.749c-2.287 0-4.322-1.44-5.084-3.597l-13.103-37.118h-55.333l-13.1 37.118c-.762 2.155-2.797 3.597-5.084 3.597h-92.753c-39.88 0-71.988-31.248-73.095-71.142-.038-1.456.509-2.865 1.524-3.91 1.015-1.042 2.41-1.632 3.867-1.632h4.57c2.544 0 4.612-2.068 4.612-4.61v-70.511c0-2.542-2.068-4.61-4.612-4.61h-3.678c-1.583 0-3.088-.697-4.111-1.904-1.023-1.209-1.465-2.805-1.209-4.368 5.876-35.451 36.211-61.179 72.131-61.179h277.206c35.928 0 66.263 25.728 72.13 61.179.257 1.563-.185 3.159-1.208 4.368-1.024 1.207-2.527 1.904-4.112 1.904h-3.677c-2.54 0-4.608 2.068-4.608 4.61v70.511c0 2.542 2.068 4.61 4.608 4.61h4.574c1.457 0 2.852.59 3.867 1.632 1.015 1.045 1.562 2.454 1.524 3.91-1.106 39.893-33.214 71.142-73.097 71.142zm-88.933-10.783h88.933c32.146 0 58.37-23.819 61.933-55.164-7.927-.615-14.19-7.264-14.19-15.347v-70.511c0-7.485 5.371-13.74 12.459-15.113-7.219-27.086-31.636-46.166-60.202-46.166h-277.207c-28.561 0-52.979 19.078-60.202 46.166 7.092 1.373 12.463 7.628 12.463 15.113v70.511c0 8.084-6.263 14.73-14.19 15.347 3.563 31.345 29.783 55.164 61.93 55.164h88.937l13.1-37.118c.762-2.154 2.797-3.597 5.084-3.597h62.965c2.287 0 4.322 1.44 5.084 3.597z"/><path d="m459.609 309.609h-7.872c-8.487 0-15.391-6.906-15.391-15.393v-70.511c0-8.487 6.904-15.393 15.391-15.393h7.872c8.488 0 15.391 6.906 15.391 15.393v70.511c0 8.487-6.903 15.393-15.391 15.393zm-7.872-90.514c-2.54 0-4.608 2.068-4.608 4.61v70.511c0 2.542 2.068 4.61 4.608 4.61h7.872c2.54 0 4.608-2.068 4.608-4.61v-70.511c0-2.542-2.068-4.61-4.608-4.61z"/><path d="m48.263 309.609h-7.868c-8.487 0-15.395-6.906-15.395-15.393v-70.511c0-8.487 6.908-15.393 15.395-15.393h7.868c8.487 0 15.395 6.906 15.395 15.393v70.511c0 8.487-6.908 15.393-15.395 15.393zm-7.868-90.514c-2.545 0-4.613 2.068-4.613 4.61v70.511c0 2.542 2.068 4.61 4.613 4.61h7.868c2.544 0 4.612-2.068 4.612-4.61v-70.511c0-2.542-2.068-4.61-4.612-4.61z"/><path d="m311.195 162.426h-122.389c-2.009 0-3.85-1.117-4.776-2.895-.931-1.778-.797-3.928.35-5.575l18.891-27.153c1.01-1.448 2.662-2.312 4.427-2.312h84.611c1.764 0 3.42.864 4.426 2.312l18.887 27.153c1.146 1.649 1.281 3.797.35 5.577-.928 1.776-2.768 2.893-4.777 2.893zm-112.07-10.783h101.75l-11.385-16.37h-78.975z"/><path d="m271.269 162.426h-42.538c-1.65 0-3.214-.758-4.237-2.058-1.024-1.299-1.39-2.994-1.002-4.601l6.566-27.153c.586-2.42 2.75-4.124 5.24-4.124h29.409c2.49 0 4.654 1.704 5.24 4.125l6.562 27.153c.388 1.605.017 3.302-1.002 4.599-1.025 1.3-2.587 2.059-4.238 2.059zm-35.688-10.783h28.84l-3.955-16.37h-20.926z"/></g></svg>