<svg height="512pt" viewBox="0 0 512 512" width="512pt" xmlns="http://www.w3.org/2000/svg" fill="#ffffff"><path d="m379.839844 314.414062c2.796875 0 5.480468-1.570312 6.769531-4.261718 20.664063-43.152344 24.300781-87.199219 25.15625-120.753906.109375-4.167969-2.675781-7.9375-6.769531-9.171876-41.855469-12.59375-72.84375-38.007812-87.265625-71.5625-3.820313-8.890624-17.601563-2.96875-13.78125 5.921876 15.730469 36.597656 48.554687 64.441406 92.699219 78.746093-1.03125 31.460938-4.988282 71.546875-23.566407 110.339844-2.304687 4.8125 1.394531 10.742187 6.757813 10.742187zm0 0"/><path d="m256 181.527344c-21.71875 0-39.390625 17.667968-39.390625 39.386718v17.851563c-11.097656 1.761719-19.609375 11.394531-19.609375 22.980469v71.453125c0 12.835937 10.441406 23.273437 23.273438 23.273437h33.726562c9.675781 0 9.675781-15 0-15h-33.726562c-4.5625 0-8.273438-3.710937-8.273438-8.273437v-71.453125c0-4.5625 3.710938-8.273438 8.273438-8.273438h71.453124c4.5625 0 8.273438 3.710938 8.273438 8.273438v71.453125c0 4.5625-3.714844 8.273437-8.273438 8.273437-9.675781 0-9.675781 15 0 15 12.832032 0 23.273438-10.4375 23.273438-23.273437v-71.453125c0-11.585938-8.511719-21.21875-19.609375-22.980469v-17.847656c0-21.722657-17.671875-39.390625-39.390625-39.390625zm0 15c13.449219 0 24.390625 10.941406 24.390625 24.386718v17.558594h-48.78125v-17.558594c0-13.445312 10.941406-24.386718 24.390625-24.386718zm0 0"/><path d="m248.5 284.972656v27c0 4.144532 3.355469 7.5 7.5 7.5s7.5-3.355468 7.5-7.5v-27c0-4.140625-3.355469-7.5-7.5-7.5s-7.5 3.359375-7.5 7.5zm0 0"/><path d="m420.695312 430.335938h67.804688c4.144531 0 7.5-3.355469 7.5-7.5v-53.859376c9.269531-2.976562 16-11.675781 16-21.921874 0-12.695313-10.328125-23.023438-23.019531-23.023438-12.695313 0-23.023438 10.328125-23.023438 23.023438 0 9.890624 6.269531 18.34375 15.042969 21.59375v46.6875h-124.410156c3.09375-2.9375 6.113281-5.910157 9.035156-8.921876 21.929688-22.570312 39.660156-47.828124 52.710938-75.074218 25.414062-53.074219 29.851562-106.125 30.882812-146.414063.453125-17.742187-11.175781-33.726562-28.285156-38.875-11.445313-3.445312-21.34375-7.609375-29.933594-12.222656v-33.828125h76.765625c3.5 8.265625 11.691406 14.074219 21.214844 14.074219 12.691406 0 23.019531-10.328125 23.019531-23.019531 0-12.695313-10.328125-23.023438-23.019531-23.023438-10.601563 0-19.542969 7.203125-22.210938 16.96875h-41.769531v-40.054688c9.269531-2.976562 16-11.675781 16-21.921874 0-12.695313-10.328125-23.023438-23.019531-23.023438-12.695313 0-23.023438 10.328125-23.023438 23.023438 0 9.886718 6.269531 18.339843 15.042969 21.59375v40.382812h-26.5c-4.140625 0-7.5 3.359375-7.5 7.5v31.914062c-18.371094-13.449218-28.4375-28.925781-33.933594-41.714843-6.203125-14.429688-20.445312-23.75-36.285156-23.75h-59.28125v-33.925781c0-4.144532-3.355469-7.5-7.5-7.5h-70.894531c-2.816407-9.539063-11.644531-16.523438-22.085938-16.523438-12.691406 0-23.019531 10.328125-23.019531 23.023438 0 12.691406 10.328125 23.019531 23.019531 23.019531 9.695313 0 18-6.023438 21.390625-14.519531h64.089844v26.425781h-25.28125c-15.839844 0-30.082031 9.324219-36.28125 23.75-8.292969 19.296875-26.972656 44.707031-68.9375 60.039062v-99.238281c0-4.140625-3.355469-7.5-7.5-7.5h-29.546875c-2.972656-9.28125-11.679687-16.023438-21.933594-16.023438-12.691406 0-23.019531 10.328126-23.019531 23.023438s10.328125 23.023438 23.019531 23.023438c9.882813 0 18.332031-6.261719 21.589844-15.023438h22.390625v50h-41.390625c-3.257813-8.761719-11.707031-15.023438-21.589844-15.023438-12.691406 0-23.019531 10.328126-23.019531 23.023438s10.328125 23.023438 23.019531 23.023438c10.253907 0 18.960938-6.742188 21.933594-16.023438h41.046875v31.964844c-14.289062 6.527344-23.625 21.035156-23.21875 36.960937.613281 23.976563 2.34375 44.082031 5.449219 63.269531 1.542969 9.550782 16.351562 7.15625 14.804687-2.394531-2.992187-18.507812-4.664062-37.976562-5.261718-61.261719-.265626-10.417968 6.226562-19.859374 15.960937-23.550781 1.480469-.046875 2.851563-.515625 3.996094-1.296875 25.023437-7.90625 67.167969-27.28125 85.988281-71.070312 3.828125-8.914063 12.660156-14.671875 22.5-14.671875h99.5625c9.839844 0 18.671875 5.757812 22.503906 14.671875 19.417969 45.183594 63.675782 64.375 88.328125 71.792968 10.648438 3.207032 17.894531 13.125 17.613281 24.128907-.992187 38.796875-5.234374 89.808593-29.421874 140.316406-26.605469 55.5625-71.742188 100.1875-137.988282 136.425781-6.773437 3.707032-14.859375 3.707032-21.632812 0-80.449219-44.007812-130.410156-101.074218-152.738282-174.46875-2.8125-9.257812-17.164062-4.890625-14.351562 4.367188 9.0625 29.789062 22.417969 56.988281 40.191406 81.816406h-26.675781c-3.257813-8.761719-11.707031-15.023438-21.589844-15.023438-12.691406 0-23.019531 10.328126-23.019531 23.023438s10.328125 23.023438 23.019531 23.023438c10.253907 0 18.960938-6.742188 21.933594-16.023438h30.546875v41h-77.882812c-3.253907-8.773438-11.707032-15.042969-21.59375-15.042969-12.695313 0-23.023438 10.328125-23.023438 23.019531 0 12.695313 10.328125 23.023438 23.019531 23.023438 10.246094 0 18.949219-6.730469 21.925781-16h50.554688v23.21875c-9.023438 3.117188-15.519531 11.691406-15.519531 21.757812 0 12.695313 10.324219 23.023438 23.019531 23.023438s23.019531-10.328125 23.019531-23.023438c0-10.066406-6.5-18.640624-15.519531-21.757812v-23.21875h19.5c4.144531 0 7.5-3.359375 7.5-7.5v-39.515625c26.210938 29.386719 59.574219 55.082031 100.484375 77.460937 5.640625 3.085938 11.828125 4.628907 18.015625 4.628907s12.375-1.542969 18.015625-4.628907c24.394531-13.34375 46.355469-28.117187 65.644531-44.109374h66.035156v59.097656c0 4.140625 3.355469 7.5 7.5 7.5h54.179688c3.246094 8.785156 11.703125 15.066406 21.605469 15.066406 12.691406 0 23.019531-10.328125 23.019531-23.023438 0-12.691406-10.328125-23.019531-23.019531-23.019531-10.238281 0-18.933594 6.71875-21.917969 15.976563h-46.367188zm68.285157-91.304688c4.421875 0 8.019531 3.601562 8.019531 8.023438 0 4.421874-3.597656 8.019531-8.019531 8.019531-4.425781 0-8.023438-3.597657-8.023438-8.019531 0-4.421876 3.597657-8.023438 8.023438-8.023438zm-71-324.03125c4.421875 0 8.019531 3.597656 8.019531 8.023438 0 4.355468-3.496094 7.90625-7.832031 8.011718-.21875-.019531-.441407-.035156-.667969-.035156-.0625 0-.125.007812-.191406.011719-4.109375-.34375-7.351563-3.792969-7.351563-7.988281 0-4.425782 3.597657-8.023438 8.023438-8.023438zm71 68.03125c4.421875 0 8.019531 3.601562 8.019531 8.023438 0 4.421874-3.597656 8.019531-8.019531 8.019531-4.425781 0-8.023438-3.597657-8.023438-8.019531 0-4.421876 3.597657-8.023438 8.023438-8.023438zm-342.960938-50.988281c-4.421875 0-8.019531-3.597657-8.019531-8.019531 0-4.425782 3.597656-8.023438 8.019531-8.023438 4.425781 0 8.023438 3.597656 8.023438 8.023438 0 4.421874-3.597657 8.019531-8.023438 8.019531zm-104 18.980469c-4.421875 0-8.019531-3.601563-8.019531-8.023438s3.597656-8.023438 8.019531-8.023438c4.425781 0 8.023438 3.601563 8.023438 8.023438s-3.597657 8.023438-8.023438 8.023438zm-19 66c-4.421875 0-8.019531-3.601563-8.019531-8.023438s3.597656-8.023438 8.019531-8.023438c4.195313 0 7.640625 3.234376 7.988281 7.339844 0 .0625-.007812.121094-.007812.183594 0 .230469.015625.460938.035156.683594-.101562 4.339844-3.652344 7.839844-8.015625 7.839844zm79.980469 379.976562c-4.421875 0-8.019531-3.597656-8.019531-8.023438 0-4.277343 3.367187-7.773437 7.589843-8 .144532.007813.285157.023438.429688.023438s.289062-.015625.429688-.023438c4.222656.226563 7.59375 3.722657 7.59375 8-.003907 4.425782-3.601563 8.023438-8.023438 8.023438zm-79.980469-52c-4.421875 0-8.019531-3.597656-8.019531-8.023438 0-4.421874 3.597656-8.019531 8.019531-8.019531 4.425781 0 8.023438 3.597657 8.023438 8.019531 0 4.425782-3.597657 8.023438-8.023438 8.023438zm47-55.976562c-4.421875 0-8.019531-3.601563-8.019531-8.023438s3.597656-8.023438 8.019531-8.023438c4.425781 0 8.023438 3.601563 8.023438 8.023438s-3.597657 8.023438-8.023438 8.023438zm418.960938 91.933593c4.421875 0 8.019531 3.597657 8.019531 8.019531 0 4.425782-3.597656 8.023438-8.019531 8.023438-4.425781 0-8.023438-3.597656-8.023438-8.023438 0-4.421874 3.597657-8.019531 8.023438-8.019531zm0 0"/></svg>