<svg id="glipy" viewBox="0 0 64 64" xmlns="http://www.w3.org/2000/svg" fill="#ffffff"><path d="m45.99961 17.4889 1.21218-1.21218a1.0028 1.0028 0 0 0 -1.41794-1.41781l-2.90031 2.90031a1.00233 1.00233 0 0 0 0 1.41788l2.90037 2.90037a.99945.99945 0 0 0 .70894.29376 1.00953 1.00953 0 0 0 .70888-1.71163l-1.16273-1.16279a12.53853 12.53853 0 0 1 12.02108 12.50775c-.69088 16.63071-24.382 16.6203-25.06739-.00013a14.55579 14.55579 0 0 0 -14.53909-14.539c-18.99535.74247-19.41475 27.72377-.4631 29.05474l-1.21231 1.21218a1.00259 1.00259 0 1 0 1.41788 1.41787l2.90037-2.90037a1.00233 1.00233 0 0 0 0-1.41788l-2.90037-2.90037a1.00277 1.00277 0 0 0 -1.41781 1.41787l1.16273 1.1628c-16.24546-1.27479-15.80354-24.408.51273-25.04151a12.54789 12.54789 0 0 1 12.53358 12.5338 14.55582 14.55582 0 0 0 14.53909 14.53909c18.99522-.74242 19.41487-27.72384.46322-29.05475z"/><path d="m26.48516 29.64635h-.62166a7.92271 7.92271 0 0 0 -1.6545-2.86776 1.83545 1.83545 0 0 0 -.30085-2.83765l-1.18312-.68176a1.684 1.684 0 0 0 -2.28617.62167l-.31083.53139a7.99971 7.99971 0 0 0 -3.30889 0c-.29841-.5459-.67093-1.18513-1.33354-1.3235-.82907-.3153-1.77785.49853-2.45668.85227a1.82433 1.82433 0 0 0 -.30067 2.83752 7.824 7.824 0 0 0 -1.66457 2.85778h-.62168a1.68176 1.68176 0 0 0 -1.68452 1.68452v1.36365a1.67963 1.67963 0 0 0 1.68452 1.67452h.62167a7.76015 7.76015 0 0 0 1.65447 2.86776 1.83467 1.83467 0 0 0 .30086 2.83758l1.18311.68189a1.6721 1.6721 0 0 0 2.28618-.61169l.31083-.54144a7.67327 7.67327 0 0 0 3.30888 0l.32087.55147a1.695 1.695 0 0 0 2.29615.61163c1.62475-.8396 2.76024-1.67018 1.47381-3.51946a7.78137 7.78137 0 0 0 1.66467-2.86774h.62166a1.67965 1.67965 0 0 0 1.68453-1.67449v-1.36364a1.68176 1.68176 0 0 0 -1.68453-1.68452zm-8.02156 6.74812a4.38694 4.38694 0 0 1 .00012-8.77359 4.38694 4.38694 0 0 1 -.00012 8.77359z"/><path d="m16.07718 32.0026a2.38658 2.38658 0 0 0 4.77284.00006 2.38658 2.38658 0 0 0 -4.77284-.00006z"/><path d="m39.27443 36.18474a1.00278 1.00278 0 0 0 1.41782-1.41794l-2.76225-2.76224 2.76231-2.76231a1.00259 1.00259 0 0 0 -1.41788-1.41788l-3.47124 3.47125a1.00232 1.00232 0 0 0 0 1.41787z"/><path d="m50.38046 36.18474a1.00233 1.00233 0 0 0 1.41788 0l3.47125-3.47125a1.00234 1.00234 0 0 0 0-1.41787l-3.47125-3.47125a1.00259 1.00259 0 1 0 -1.41788 1.41788l2.76231 2.76231-2.76231 2.76231a1.00234 1.00234 0 0 0 0 1.41787z"/><path d="m45.20738 37.45378 2.6027-10.41278a1.00238 1.00238 0 0 0 -1.94468-.48562l-2.60271 10.41272a1.00239 1.00239 0 0 0 1.94469.48568z"/></svg>