<?xml version="1.0"?>
<svg xmlns="http://www.w3.org/2000/svg" viewBox="0 0 64 64" width="512" height="512" fill="#ffffff"><g id="Monitor_Coding" data-name="Monitor Coding"><path d="M63,8H56a1,1,0,0,0,0,2h6V40H53V3a3.0033,3.0033,0,0,0-3-3H14a3.0033,3.0033,0,0,0-3,3V40H2V10H8A1,1,0,0,0,8,8H1A1,1,0,0,0,0,9V49a1,1,0,0,0,1,1H25v4H14a1,1,0,0,0-.8945.5527l-4,8A1,1,0,0,0,10,64H54a1,1,0,0,0,.8945-1.4473l-4-8A1,1,0,0,0,50,54H39V50H63a1,1,0,0,0,1-1V9A1,1,0,0,0,63,8ZM14,2H50a1.0009,1.0009,0,0,1,1,1V6H28a1,1,0,0,0-1,1,3.0033,3.0033,0,0,1-3,3H13V3A1.0009,1.0009,0,0,1,14,2ZM13,12H24a5.0084,5.0084,0,0,0,4.8994-4H51V40H13ZM52.3818,62H11.6182l3-6H24.8157A2.995,2.995,0,0,1,22,58a1,1,0,0,0,0,2H42a1,1,0,0,0,0-2,2.995,2.995,0,0,1-2.8157-2H49.3818ZM37,55a4.9741,4.9741,0,0,0,1.0024,3H25.9976A4.9741,4.9741,0,0,0,27,55V50H37Zm25-7H2V42H62Z"/><path d="M34,44H30a1,1,0,0,0,0,2h4a1,1,0,0,0,0-2Z"/><circle cx="16" cy="7" r="1"/><circle cx="20" cy="7" r="1"/><circle cx="24" cy="7" r="1"/><path d="M35,5h8a1,1,0,0,0,0-2H35a1,1,0,0,0,0,2Z"/><path d="M46,5h2a1,1,0,0,0,0-2H46a1,1,0,0,0,0,2Z"/><path d="M25.707,20.293a.9994.9994,0,0,0-1.414,0l-5,5a.9994.9994,0,0,0,0,1.414l5,5a1,1,0,0,0,1.414-1.414L21.4141,26l4.2929-4.293A.9994.9994,0,0,0,25.707,20.293Z"/><path d="M39.707,20.293a1,1,0,0,0-1.414,1.414L42.5859,26,38.293,30.293a1,1,0,1,0,1.414,1.414l5-5a.9994.9994,0,0,0,0-1.414Z"/><path d="M34.2061,16.0215a1.0021,1.0021,0,0,0-1.1846.7724l-4,19a1,1,0,1,0,1.957.4122l4-19A1,1,0,0,0,34.2061,16.0215Z"/></g></svg>
