<svg id="Layer_3" height="512" viewBox="0 0 64 64" width="512" xmlns="http://www.w3.org/2000/svg" data-name="Layer 3" fill="#ffffff"><path d="m31 57h2v2h-2z"/><path d="m29 5h6v2h-6z"/><path d="m16 12h2v2h-2z"/><path d="m20 12h2v2h-2z"/><path d="m12 12h2v2h-2z"/><path d="m8 12h2v2h-2z"/><path d="m23 38a7 7 0 1 0 -7 7 7.008 7.008 0 0 0 7-7zm-12 0a5 5 0 1 1 5 5 5.006 5.006 0 0 1 -5-5z"/><path d="m50 18.051v-12.051a5.006 5.006 0 0 0 -5-5h-26a5.009 5.009 0 0 0 -4.9 4h-10.1a3 3 0 0 0 -3 3v10a3 3 0 0 0 3 3h10v3h-1a1 1 0 0 0 -1 1v1.693a11.983 11.983 0 0 0 -1.168.482l-1.2-1.2a1.029 1.029 0 0 0 -1.414 0l-4.239 4.247a1 1 0 0 0 0 1.414l1.2 1.2a11.881 11.881 0 0 0 -.486 1.164h-1.693a1 1 0 0 0 -1 1v6a1 1 0 0 0 1 1h1.693a11.983 11.983 0 0 0 .482 1.168l-1.2 1.2a1 1 0 0 0 0 1.414l4.243 4.243a1 1 0 0 0 1.414 0l1.2-1.2a11.881 11.881 0 0 0 1.168.482v1.693a1 1 0 0 0 1 1h1v6a5.006 5.006 0 0 0 5 5h26a5.006 5.006 0 0 0 5-5v-12.051a13.984 13.984 0 0 0 0-27.9zm-31-15.051h26a3 3 0 0 1 3 3v12.051a13.857 13.857 0 0 0 -2 .281v-8.332a1 1 0 0 0 -1-1h-18v-1a3 3 0 0 0 -3-3h-7.816a3 3 0 0 1 2.816-2zm1 48v-1.693a11.881 11.881 0 0 0 1.168-.482l1.2 1.2a1 1 0 0 0 1.414 0l4.243-4.243a1 1 0 0 0 0-1.414l-1.2-1.2a11.983 11.983 0 0 0 .482-1.168h1.693a1 1 0 0 0 1-1v-6a1 1 0 0 0 -1-1h-1.693a11.881 11.881 0 0 0 -.482-1.168l1.2-1.2a1 1 0 0 0 0-1.414l-4.243-4.243a1 1 0 0 0 -1.414 0l-1.2 1.2a11.983 11.983 0 0 0 -1.168-.482v-5.693h1.838l5.846 1.949a1.014 1.014 0 0 0 .316.051 1 1 0 0 0 .895-1.447l-1.895-3.789v-6.764h17v7.939a13.977 13.977 0 0 0 0 26.122v7.939h-24zm-17-33v-10a1 1 0 0 1 1-1h20a1 1 0 0 1 1 1v10a1 1 0 0 0 .105.447l.921 1.841-3.71-1.237a1 1 0 0 0 -.316-.051h-18a1 1 0 0 1 -1-1zm13 3h2v3h-2zm-2.727 26.613a9.968 9.968 0 0 1 -2.145-.884 1 1 0 0 0 -1.194.166l-1 1-2.834-2.824 1-1a1 1 0 0 0 .166-1.194 9.968 9.968 0 0 1 -.884-2.145 1 1 0 0 0 -.957-.732h-1.425v-4h1.425a1 1 0 0 0 .962-.727 9.918 9.918 0 0 1 .884-2.144 1 1 0 0 0 -.166-1.195l-1-1.005 2.824-2.829 1 1a1 1 0 0 0 1.194.166 9.968 9.968 0 0 1 2.145-.884 1 1 0 0 0 .732-.957v-1.425h4v1.425a1 1 0 0 0 .727.962 9.968 9.968 0 0 1 2.145.884 1 1 0 0 0 1.194-.166l1.005-1 2.829 2.824-1 1.005a1 1 0 0 0 -.166 1.195 9.918 9.918 0 0 1 .884 2.144 1 1 0 0 0 .962.727h1.42v4h-1.425a1 1 0 0 0 -.962.727 9.968 9.968 0 0 1 -.884 2.145 1 1 0 0 0 .166 1.194l1 1-2.824 2.834-1.005-1a1 1 0 0 0 -1.194-.166 9.968 9.968 0 0 1 -2.145.884 1 1 0 0 0 -.727.962v1.42h-4v-1.425a1 1 0 0 0 -.727-.962zm31.727 13.387h-26a3 3 0 0 1 -3-3v-6h2v2a1 1 0 0 0 1 1h26a1 1 0 0 0 1-1v-8.332a13.857 13.857 0 0 0 2 .281v12.051a3 3 0 0 1 -3 3zm4-17a12 12 0 1 1 12-12 12.013 12.013 0 0 1 -12 12z"/><path d="m46 36.586-3.293-3.293-1.414 1.414 4 4a1 1 0 0 0 1.414 0l11-11-1.414-1.414z"/></svg>