<?xml version="1.0" encoding="UTF-8" ?>
<!DOCTYPE svg PUBLIC "-//W3C//DTD SVG 1.1//EN" "http://www.w3.org/Graphics/SVG/1.1/DTD/svg11.dtd">
<svg width="299pt" height="91pt" viewBox="0 0 299 91" version="1.1" xmlns="http://www.w3.org/2000/svg">
<g id="#ff2800ff">
<path fill="#ff2800" opacity="1.00" d=" M 12.47 10.56 C 32.16 10.44 51.86 10.46 71.54 10.55 C 76.22 10.37 80.93 14.07 80.97 18.92 C 81.05 38.96 80.97 59.00 81.01 79.04 C 81.30 82.75 78.93 86.36 75.50 87.72 C 72.78 88.68 69.84 88.49 67.01 88.52 C 48.84 88.43 30.67 88.63 12.50 88.43 C 7.44 88.63 2.93 84.11 3.25 79.04 C 3.24 59.35 3.24 39.66 3.25 19.97 C 2.93 14.90 7.42 10.39 12.47 10.56 M 9.34 15.40 C 7.19 16.84 6.90 19.63 6.98 22.00 C 7.03 40.68 6.98 59.37 7.01 78.06 C 6.70 81.05 8.73 84.51 12.02 84.46 C 32.01 84.52 52.00 84.51 71.99 84.47 C 74.92 84.65 77.44 81.91 77.22 79.02 C 77.26 59.36 77.26 39.68 77.22 20.02 C 77.46 17.14 74.98 14.38 72.06 14.53 C 52.72 14.45 33.37 14.56 14.02 14.48 C 12.44 14.53 10.67 14.35 9.34 15.40 Z" />
<path fill="#ff2800" opacity="1.00" d=" M 181.75 28.00 C 184.16 28.00 186.58 28.00 189.00 28.00 C 189.00 41.42 189.00 54.83 189.00 68.25 C 186.58 68.25 184.17 68.25 181.75 68.25 C 181.75 54.83 181.75 41.42 181.75 28.00 Z" />
<path fill="#ff2800" opacity="1.00" d=" M 10.92 68.25 C 15.47 55.74 20.03 43.23 24.64 30.74 C 27.15 30.75 29.66 30.75 32.16 30.75 C 36.77 43.23 41.29 55.74 45.89 68.23 C 43.12 68.24 40.34 68.25 37.57 68.32 C 36.52 65.52 35.51 62.70 34.62 59.84 C 30.48 59.71 26.35 59.74 22.21 59.79 C 21.27 62.62 20.27 65.43 19.28 68.25 C 16.49 68.25 13.71 68.25 10.92 68.25 M 28.43 41.97 C 27.17 45.55 25.90 49.13 24.71 52.74 C 27.17 52.75 29.64 52.75 32.11 52.77 C 30.84 49.19 29.65 45.58 28.43 41.97 Z" />
<path fill="#ff2800" opacity="1.00" d=" M 50.24 30.75 C 52.66 30.75 55.08 30.75 57.50 30.75 C 57.52 40.91 57.50 51.08 57.51 61.24 C 62.67 61.24 67.83 61.25 73.00 61.24 C 73.00 63.58 73.00 65.91 73.00 68.25 C 65.41 68.25 57.83 68.25 50.24 68.25 C 50.24 55.75 50.24 43.25 50.24 30.75 Z" />
<path fill="#ff2800" opacity="1.00" d=" M 89.92 68.25 C 94.52 55.75 99.07 43.24 103.65 30.74 C 106.15 30.75 108.66 30.75 111.17 30.74 C 115.78 43.23 120.33 55.73 124.90 68.23 C 122.11 68.25 119.33 68.25 116.54 68.27 C 115.55 65.52 114.60 62.76 113.63 60.00 C 109.46 60.00 105.29 60.00 101.13 60.00 C 100.22 62.76 99.30 65.51 98.38 68.26 C 95.56 68.25 92.74 68.25 89.92 68.25 M 107.42 41.87 C 106.24 45.51 104.99 49.13 103.70 52.74 C 106.17 52.74 108.64 52.76 111.12 52.77 C 109.88 49.14 108.61 45.51 107.42 41.87 Z" />
<path fill="#ff2800" opacity="1.00" d=" M 251.21 31.13 C 253.82 29.70 257.45 32.08 257.04 35.06 C 257.24 37.94 253.68 40.00 251.20 38.66 C 247.99 37.45 248.10 32.41 251.21 31.13 Z" />
<path fill="#ff2800" opacity="1.00" d=" M 280.24 30.75 C 282.74 30.75 285.25 30.75 287.76 30.75 C 287.76 43.25 287.75 55.74 287.76 68.24 C 285.11 67.94 281.77 69.22 279.69 67.08 C 275.20 69.66 269.16 69.29 265.33 65.69 C 260.17 60.74 259.88 51.79 264.20 46.22 C 267.95 41.46 275.39 40.60 280.28 44.10 C 280.21 39.65 280.25 35.20 280.24 30.75 M 271.37 49.48 C 266.77 52.26 267.71 60.88 273.26 61.91 C 277.30 62.84 280.88 58.89 280.28 54.96 C 280.70 50.38 275.26 46.97 271.37 49.48 Z" />
<path fill="#ff2800" opacity="1.00" d=" M 131.31 44.28 C 137.21 40.04 146.23 41.72 150.02 48.02 C 147.94 49.01 145.87 50.00 143.78 50.95 C 141.98 49.28 139.54 48.06 137.06 49.00 C 131.58 50.83 131.73 60.04 137.23 61.75 C 139.69 62.71 142.07 61.20 143.96 59.76 C 145.97 60.72 147.97 61.72 149.96 62.73 C 146.23 68.95 137.29 70.68 131.44 66.48 C 123.96 61.64 123.93 49.23 131.31 44.28 Z" />
<path fill="#ff2800" opacity="1.00" d=" M 155.39 46.33 C 159.74 41.02 168.87 40.29 173.66 45.40 C 176.85 48.71 177.59 53.59 177.06 58.00 C 171.26 58.03 165.45 57.92 159.65 58.07 C 160.89 59.61 162.07 61.56 164.21 61.88 C 166.59 62.56 168.65 60.96 170.52 59.74 C 172.51 60.74 174.49 61.74 176.47 62.75 C 172.76 68.72 164.23 70.64 158.37 66.77 C 151.50 62.67 150.32 52.30 155.39 46.33 M 159.64 52.70 C 163.20 52.78 166.77 52.77 170.33 52.71 C 169.34 50.59 167.61 48.31 164.96 48.72 C 162.39 48.56 160.80 50.76 159.64 52.70 Z" />
<path fill="#ff2800" opacity="1.00" d=" M 194.24 42.24 C 196.75 42.24 199.25 42.24 201.75 42.24 C 201.88 47.80 201.51 53.38 201.92 58.93 C 202.69 62.89 209.06 62.61 209.57 58.63 C 210.02 53.18 209.61 47.70 209.75 42.24 C 212.25 42.24 214.75 42.24 217.25 42.24 C 217.25 50.91 217.25 59.58 217.25 68.25 C 214.74 67.71 210.76 69.64 209.34 66.85 C 206.92 68.42 203.95 69.35 201.11 68.37 C 196.74 67.36 194.51 62.74 194.33 58.59 C 194.09 53.14 194.32 47.69 194.24 42.24 Z" />
<path fill="#ff2800" opacity="1.00" d=" M 227.09 44.09 C 233.01 40.07 241.79 41.84 245.50 48.03 C 243.45 49.01 241.40 50.00 239.34 50.94 C 237.44 49.20 234.74 47.94 232.20 49.14 C 226.89 51.28 227.47 60.53 233.11 61.85 C 235.49 62.58 237.65 61.08 239.47 59.75 C 241.48 60.73 243.48 61.73 245.47 62.74 C 241.66 69.01 232.56 70.72 226.72 66.33 C 219.33 61.33 219.54 48.85 227.09 44.09 Z" />
<path fill="#ff2800" opacity="1.00" d=" M 249.25 42.24 C 251.75 42.24 254.25 42.24 256.75 42.24 C 256.76 50.91 256.76 59.58 256.76 68.25 C 254.25 68.25 251.74 68.25 249.24 68.25 C 249.25 59.58 249.24 50.91 249.25 42.24 Z" />
</g>
</svg>
