<svg id="Line_Expand" enable-background="new 0 0 64 64" height="512" viewBox="0 0 64 64" width="512" fill="#ffffff" xmlns="http://www.w3.org/2000/svg"><path d="m32 24c-9.925 0-18 8.075-18 18s8.075 18 18 18 18-8.075 18-18-8.075-18-18-18zm0 12c-1.103 0-2-.897-2-2s.897-2 2-2 2 .897 2 2-.897 2-2 2zm6 20.822v-2.408l2.707-2.707c.188-.187.293-.441.293-.707v-5.142c1.721-.447 3-1.999 3-3.858 0-2.206-1.794-4-4-4s-4 1.794-4 4c0 1.859 1.279 3.411 3 3.858v4.728l-2.707 2.707c-.188.187-.293.441-.293.707v3.473c-.969.251-1.97.412-3 .476v-20.091c1.721-.447 3-1.999 3-3.858 0-2.206-1.794-4-4-4s-4 1.794-4 4c0 1.859 1.279 3.411 3 3.858v20.091c-1.03-.064-2.031-.225-3-.476v-3.473c0-.266-.105-.52-.293-.707l-2.707-2.707v-4.728c1.721-.447 3-1.999 3-3.858 0-2.206-1.794-4-4-4s-4 1.794-4 4c0 1.859 1.279 3.411 3 3.858v5.142c0 .266.105.52.293.707l2.707 2.707v2.408c-5.856-2.379-10-8.122-10-14.822 0-8.822 7.178-16 16-16s16 7.178 16 16c0 6.7-4.144 12.443-10 14.822zm2-12.822c-1.103 0-2-.897-2-2s.897-2 2-2 2 .897 2 2-.897 2-2 2zm-16 0c-1.103 0-2-.897-2-2s.897-2 2-2 2 .897 2 2-.897 2-2 2z"/><path d="m63 21h-5c-3.712 0-6.751 2.908-6.978 6.564l-1.35 1.35c-.517-.697-1.078-1.359-1.672-1.99v-10.51l1.414-1.414h5.586c4.963 0 9-4.037 9-9 0-.553-.447-1-1-1h-6c-4.816 0-8.748 3.804-8.978 8.564l-1.729 1.729c-.188.187-.293.441-.293.707v2.586l-2.022-2.022c-.227-3.656-3.266-6.564-6.978-6.564h-5c-.553 0-1 .447-1 1 0 3.859 3.141 7 7 7h4.586l3.414 3.414v3.628c-3.806-3.148-8.686-5.042-14-5.042-4.425 0-8.546 1.318-12 3.575v-12.161l1.414-1.414h5.586c4.963 0 9-4.037 9-9 0-.553-.447-1-1-1h-6c-4.816 0-8.748 3.804-8.978 8.564l-1.729 1.729c-.188.187-.293.441-.293.707v5.586l-2.022-2.022c-.23-4.76-4.162-8.564-8.978-8.564h-6c-.553 0-1 .447-1 1 0 4.963 4.037 9 9 9h5.586l3.414 3.414v5.628c-2.116 1.75-3.897 3.889-5.24 6.304l-1.135-1.135c.406-1.347 1.078-4.626-1.134-6.838-2.622-2.621-8.279-2.425-8.526-2.413-.52.021-.937.438-.958.958-.01.24-.21 5.904 2.413 8.526 1.209 1.209 2.739 1.557 4.098 1.557 1.082 0 2.052-.22 2.669-.401l1.639 1.639c-1.172 2.686-1.826 5.648-1.826 8.761 0 12.131 9.869 22 22 22s22-9.869 22-22c0-4.169-1.166-8.071-3.189-11.397l1.603-1.603h4.586c3.859 0 7-3.141 7-7 0-.553-.447-1-1-1zm-6-14h4.929c-.486 3.388-3.408 6-6.929 6h-4.929c.487-3.388 3.408-6 6.929-6zm-19 9c-2.415 0-4.435-1.721-4.899-4h3.899c2.415 0 4.435 1.721 4.899 4zm-9-14h4.929c-.487 3.388-3.408 6-6.929 6h-4.929c.487-3.388 3.408-6 6.929-6zm-20 12c-3.521 0-6.442-2.612-6.929-6h4.929c3.521 0 6.442 2.612 6.929 6zm-4.166 15.03c-1.365-1.365-1.759-4.295-1.825-6.068 1.773.066 4.702.46 6.068 1.825 1.048 1.048 1.06 2.601.877 3.753l-3.247-3.247-1.414 1.414 3.211 3.211c-1.144.169-2.647.135-3.67-.888zm27.166 32.97c-11.028 0-20-8.972-20-20s8.972-20 20-20 20 8.972 20 20-8.972 20-20 20zm25-35h-3.899c.465-2.279 2.484-4 4.899-4h3.899c-.464 2.279-2.484 4-4.899 4z"/></svg>