<svg id="Layer_1" enable-background="new 0 0 512 512" height="512" viewBox="0 0 512 512" width="512" xmlns="http://www.w3.org/2000/svg" fill="#ffffff"><path d="m185.012 447.683c0 3.866-3.134 7-7 7h-37.889c-3.866 0-7-3.134-7-7s3.134-7 7-7h37.889c3.866 0 7 3.133 7 7zm313.42-288.247c0 39.689-19.465 82.535-59.508 130.986-34.032 41.178-78.779 82.01-129.492 127.289-1.479 1.32-3.128 2.335-4.864 3.078v40.388c0 23.062-18.762 41.824-41.824 41.824h-207.352c-23.062 0-41.824-18.762-41.824-41.824v-410.353c0-23.062 18.763-41.824 41.824-41.824h207.352c23.062 0 41.824 18.762 41.824 41.824v62.452c23.471-33.517 49.959-47.334 89.932-47.334 57.308 0 103.932 41.941 103.932 93.494zm-207.865 301.74v-40.388c-1.736-.743-3.385-1.757-4.864-3.078-50.713-45.279-95.46-86.11-129.492-127.289-40.043-48.451-59.508-91.297-59.508-130.986 0-51.553 46.624-93.494 103.932-93.494 39.973 0 66.461 13.817 89.932 47.333v-62.45c0-15.342-12.482-27.824-27.824-27.824h-207.351c-15.342 0-27.824 12.482-27.824 27.824v410.353c0 15.341 12.482 27.823 27.824 27.823h207.352c15.341 0 27.823-12.482 27.823-27.824zm193.865-301.74c0-43.833-40.343-79.494-89.932-79.494-37.229 0-60.218 13.061-81.994 46.582-3.348 5.153-8.792 8.109-14.938 8.109-6.145 0-11.589-2.956-14.938-8.109-21.776-33.522-44.765-46.583-81.995-46.583-49.589 0-89.932 35.661-89.932 79.494 0 83.255 97.926 170.69 184.325 247.832 1.471 1.314 3.607 1.314 5.08 0 86.398-77.142 184.324-164.576 184.324-247.831zm-95.797 90.89c0 50.215-40.853 91.067-91.067 91.067s-91.068-40.852-91.068-91.067 40.853-91.067 91.067-91.067 91.068 40.852 91.068 91.067zm-14 0c0-42.495-34.572-77.067-77.067-77.067s-77.068 34.572-77.068 77.067 34.572 77.067 77.067 77.067 77.068-34.572 77.068-77.067zm-24.336-20.939c3.866 0 7 3.134 7 7v27.876c0 3.866-3.134 7-7 7h-31.793v31.793c0 3.866-3.134 7-7 7h-27.876c-3.866 0-7-3.134-7-7v-31.793h-31.793c-3.866 0-7-3.134-7-7v-27.876c0-3.866 3.134-7 7-7h31.793v-31.794c0-3.866 3.134-7 7-7h27.876c3.866 0 7 3.134 7 7v31.794zm-7 14h-31.793c-3.866 0-7-3.134-7-7v-31.794h-13.876v31.794c0 3.866-3.134 7-7 7h-31.793v13.876h31.793c3.866 0 7 3.134 7 7v31.793h13.876v-31.793c0-3.866 3.134-7 7-7h31.793z"/></svg>