<svg id="Layer_1" enable-background="new 0 0 512 512" viewBox="0 0 512 512" xmlns="http://www.w3.org/2000/svg" fill="#ffffff"><path d="m502.437 309.339-62.722-62.722c-1.31-1.31-3.088-2.047-4.941-2.047h-98.106c-6.892-43.659-44.778-77.151-90.343-77.151-6.357 0-12.564.653-18.56 1.893v-99.102c0-1.854-.736-3.631-2.047-4.942l-62.722-62.721c-1.31-1.31-3.088-2.047-4.941-2.047h-143.551c-3.859 0-6.988 3.129-6.988 6.988v252.953c0 3.86 3.129 6.988 6.988 6.988h140.729c4.324 46.443 43.524 82.922 91.092 82.922 13.515 0 26.354-2.949 37.91-8.234v162.394c0 3.86 3.129 6.988 6.988 6.988h206.273c3.859 0 6.988-3.129 6.988-6.988v-190.231c-.001-1.854-.737-3.63-2.047-4.941zm-60.675-40.91 38.863 38.862h-38.863zm-276.719-244.07 38.863 38.862h-38.863zm-143.551-9.882h129.575v55.733c0 3.86 3.129 6.988 6.988 6.988h55.734v96.202c-32.822 12.526-56.636 43.424-58.793 80.052h-133.504zm147.314 244.409c0-42.728 34.775-77.49 77.519-77.49 42.728 0 77.49 34.761 77.49 77.49 0 42.727-34.762 77.489-77.49 77.489-42.744 0-77.519-34.762-77.519-77.489zm129.405 238.637v-163.356c23.893-16.519 39.58-44.1 39.58-75.281 0-.114-.004-.226-.004-.339h89.999v55.733c0 3.86 3.129 6.988 6.988 6.988h55.734v176.255zm28.122-157.187h136.053v13.977h-136.053zm0 29.679h136.053v13.977h-136.053zm0 29.705h136.053v13.977h-136.053zm-140.665-289.477h-136.054v-13.977h136.053v13.977zm0 29.678h-136.054v-13.977h136.053v13.977zm0 29.706h-136.054v-13.977h136.053v13.977zm87.845 69.2v6.988h-13.976v-6.988c0-3.65-2.97-6.62-6.62-6.62h-9.987c-5.429 0-9.846 4.416-9.846 9.845 0 5.387 1.25 9.845 16.607 9.845 13.135 0 23.821 10.674 23.821 23.793 0 11.905-8.777 21.798-20.2 23.548v16.174h-13.976v-15.917c-11.186-.199-20.229-9.345-20.229-20.578v-6.988h13.976v6.988c0 3.65 2.97 6.62 6.62 6.62h9.987c5.429 0 9.846-4.417 9.846-9.846 0-5.412-4.417-9.816-9.846-9.816-20.294 0-30.583-8.015-30.583-23.822 0-11.914 8.792-21.813 20.229-23.551v-16.142h13.976v15.891c11.174.214 20.201 9.353 20.201 20.576zm12.024-113.08h65.381v30.837c0 2.826 1.702 5.374 4.313 6.456.865.358 1.773.532 2.674.532 1.818 0 3.605-.71 4.942-2.046l53.584-53.556c1.311-1.31 2.048-3.088 2.048-4.942s-.736-3.632-2.047-4.943l-53.584-53.583c-1.999-1.997-5.005-2.595-7.615-1.515-2.612 1.082-4.314 3.63-4.314 6.456v30.836h-65.381c-3.859 0-6.988 3.129-6.988 6.988v31.489c-.001 3.862 3.128 6.991 6.987 6.991zm6.988-31.489h65.381c3.859 0 6.988-3.129 6.988-6.988v-20.955l36.713 36.712-36.713 36.692v-20.961c0-3.86-3.129-6.988-6.988-6.988h-65.381zm-71.747 291.995h-65.353v-30.837c0-2.826-1.702-5.374-4.313-6.456-2.61-1.078-5.616-.484-7.615 1.514l-53.584 53.556c-1.311 1.31-2.048 3.088-2.048 4.942s.736 3.632 2.047 4.943l53.584 53.583c1.337 1.336 3.124 2.047 4.943 2.047.9 0 1.808-.174 2.673-.532 2.612-1.082 4.314-3.63 4.314-6.456v-30.836h65.353c3.859 0 6.988-3.129 6.988-6.988v-31.489c-.002-3.862-3.13-6.991-6.989-6.991zm-6.988 31.489h-65.353c-3.859 0-6.988 3.129-6.988 6.988v20.954l-36.712-36.712 36.712-36.692v20.961c0 3.86 3.129 6.988 6.988 6.988h65.353z"/></svg>