<svg id="Layer_1" height="512" viewBox="0 0 512 512" width="512" xmlns="http://www.w3.org/2000/svg" data-name="Layer 1" fill="#ffffff"><path d="m505.477 98.28c-.265 2.573-2.437 4.489-4.968 4.489-.171 0-.343-.009-.518-.027-2.746-.282-4.744-2.738-4.462-5.485 2.473-24.053-4.569-45.703-19.827-60.961-15.258-15.257-36.904-22.299-60.96-19.826-2.747.287-5.203-1.715-5.485-4.462s1.716-5.203 4.462-5.485c27.108-2.786 51.628 5.276 69.055 22.703s25.489 41.951 22.703 69.055zm-94.218-67.825c-2.746.282-4.744 2.738-4.462 5.485s2.727 4.743 5.485 4.462c17.688-1.815 33.591 3.344 44.781 14.534 11.19 11.191 16.352 27.094 14.533 44.781-.282 2.747 1.716 5.203 4.462 5.485.174.018.347.027.518.027 2.531 0 4.703-1.916 4.968-4.489 2.132-20.737-4.051-39.515-17.41-52.875-13.359-13.359-32.137-19.544-52.875-17.411zm-1.438 33.879c11.321-1.166 21.479 2.118 28.602 9.241 7.123 7.124 10.405 17.281 9.242 28.602-.282 2.747 1.716 5.203 4.463 5.485.174.018.346.027.517.027 2.531 0 4.703-1.917 4.968-4.489 1.477-14.372-2.827-27.404-12.119-36.695s-22.325-13.595-36.695-12.118c-2.746.282-4.744 2.738-4.462 5.485s2.731 4.745 5.485 4.462zm22.678 39.42c16.954 20.76 26.252 46.759 26.252 73.677 0 64.259-52.279 116.538-116.538 116.538s-116.537-52.279-116.537-116.538 52.278-116.537 116.537-116.537c23.204 0 45.448 6.747 64.6 19.538 3-2.166 6.582-3.352 10.354-3.352 4.741 0 9.199 1.847 12.552 5.199 3.353 3.353 5.199 7.811 5.199 12.553 0 3.189-.853 6.24-2.42 8.922zm16.131 68.677c-1.057-22.57-9.252-44.196-23.414-61.782-2.464 1.257-5.203 1.935-8.05 1.935-3.773 0-7.355-1.186-10.355-3.352-3.519 2.35-7.146 4.485-10.86 6.422 5.932 16.905 9.324 36.38 9.801 56.777h42.877zm-47.977-84.089c-9.153-6.023-19.068-10.543-29.47-13.471 6.204 5.685 11.892 13.252 16.85 22.55 1.511 2.834 2.927 5.796 4.257 8.858 2.848-1.523 5.643-3.167 8.364-4.957-1.629-4.163-1.629-8.816 0-12.979zm-53.441 30.301c12.485-.574 24.606-3.291 35.96-8.027-8.895-20.722-21.717-34.895-35.96-37.614v45.642zm-50.819-21.223c4.946-9.276 10.619-16.83 16.807-22.511-14.159 4.012-27.125 10.889-38.237 19.956 5.373 4.377 11.135 8.175 17.18 11.396 1.328-3.056 2.741-6.012 4.25-8.841zm4.877 13.156c11.346 4.723 23.489 7.493 35.942 8.074v-45.65c-14.234 2.717-27.048 16.875-35.942 37.576zm-3.597 9.356c-5.25 15.312-8.514 33.325-9.001 52.499h48.54v-43.771c-13.693-.585-27.059-3.566-39.54-8.727zm-9.001 62.499c.486 19.174 3.751 37.187 9.001 52.499 12.482-5.162 25.849-8.144 39.54-8.729v-43.77h-48.54zm12.598 61.854c8.894 20.701 21.708 34.859 35.942 37.576v-45.651c-12.451.582-24.596 3.351-35.942 8.075zm-9.127 4.314c-6.045 3.221-11.804 7.022-17.177 11.399 11.111 9.066 24.075 15.942 38.233 19.954-6.187-5.681-11.86-13.234-16.806-22.51-1.509-2.83-2.923-5.786-4.25-8.843zm95.89 8.843c-4.946 9.276-10.618 16.829-16.805 22.51 14.155-4.011 27.117-10.885 38.227-19.949-5.371-4.375-11.124-8.185-17.17-11.406-1.328 3.058-2.742 6.014-4.251 8.845zm-4.877-13.157c-11.349-4.724-23.496-7.491-35.943-8.074v45.65c14.234-2.717 27.049-16.875 35.943-37.576zm3.596-9.351c5.251-15.313 8.516-33.328 9.002-52.503h-48.541v43.77c13.686.585 27.054 3.57 39.539 8.733zm9.002-62.503c-.486-19.162-3.747-37.166-8.992-52.472-12.489 5.175-25.822 8.123-39.549 8.699v43.773zm15.93-83.081c-3.021 3.022-3.021 7.94 0 10.963 1.465 1.464 3.411 2.271 5.482 2.271s4.017-.806 5.48-2.271c1.465-1.465 2.271-3.411 2.271-5.482s-.807-4.017-2.271-5.481c-1.465-1.464-3.411-2.271-5.481-2.271s-4.018.806-5.482 2.271zm-175.888 83.081h42.876c.477-20.397 3.869-39.873 9.802-56.778-7.452-3.874-14.504-8.573-21.03-14.037-18.491 18.238-30.364 43.165-31.648 70.815zm31.648 80.815c6.525-5.463 13.579-10.161 21.031-14.035-5.933-16.906-9.325-36.382-9.802-56.779h-42.876c1.284 27.65 13.157 52.577 31.648 70.815zm181.186-70.815h-42.876c-.477 20.399-3.87 39.877-9.803 56.784 7.453 3.874 14.51 8.567 21.034 14.029 18.49-18.238 30.362-43.164 31.646-70.813zm-189.076 248.755c4.878 4.903 7.555 11.427 7.536 18.37s-2.729 13.453-7.633 18.331l-28.91 28.758c-6.191 6.158-14.081 9.371-22.217 9.371-4.384 0-8.839-.933-13.14-2.84-83.591-37.075-149.803-103.638-186.436-187.426-5.383-12.31-2.809-25.844 6.718-35.32l28.91-28.758c10.146-10.091 26.609-10.048 36.702.097l24.192 24.322c10.092 10.146 10.048 26.609-.097 36.701l-17.065 16.975c-1.008 1.002-1.145 2.462-.34 3.634 24.416 35.556 54.759 66.06 90.185 90.664 1.167.811 2.63.68 3.635-.321l17.065-16.975c10.146-10.091 26.609-10.049 36.702.098l24.192 24.321zm-2.464 18.344c.012-4.272-1.632-8.282-4.626-11.292l-24.192-24.321c-6.204-6.236-16.324-6.262-22.56-.06l-17.065 16.975c-4.4 4.377-11.294 4.984-16.392 1.444-36.423-25.297-67.62-56.66-92.725-93.217-3.513-5.117-2.869-12.008 1.532-16.384l17.064-16.975c6.236-6.203 6.263-16.323.06-22.56l-24.192-24.321c-3.112-3.128-7.211-4.694-11.311-4.694-4.07 0-8.142 1.544-11.249 4.635l-28.91 28.758c-6.534 6.5-8.3 15.782-4.608 24.224 35.63 81.493 100.027 146.231 181.329 182.292 8.422 3.735 17.715 2.021 24.249-4.48l28.91-28.758c3.011-2.994 4.675-6.996 4.686-11.267zm-9.447-89.32c.174.018.347.027.518.027 2.531 0 4.703-1.916 4.968-4.489 2.954-28.733-5.59-54.728-24.058-73.196s-44.462-27.01-73.196-24.058c-2.746.282-4.744 2.738-4.462 5.485s2.735 4.747 5.485 4.462c25.673-2.641 48.802 4.882 65.102 21.182 16.3 16.299 23.821 39.419 21.182 65.102-.282 2.747 1.716 5.203 4.462 5.485zm-25.457 2.617c.174.018.347.027.518.027 2.531 0 4.703-1.916 4.968-4.489 2.258-21.961-4.287-41.844-18.428-55.985s-34.019-20.683-55.986-18.428c-2.746.282-4.744 2.738-4.462 5.485.283 2.747 2.727 4.746 5.485 4.462 18.905-1.942 35.919 3.579 47.892 15.552s17.496 28.981 15.552 47.892c-.282 2.747 1.716 5.203 4.462 5.485zm-25.457 2.617c.175.018.347.027.518.027 2.531 0 4.703-1.916 4.968-4.489 1.562-15.19-2.983-28.961-12.799-38.775-9.814-9.814-23.581-14.362-38.774-12.798-2.746.282-4.744 2.738-4.462 5.485s2.732 4.744 5.485 4.462c12.14-1.247 23.034 2.275 30.681 9.921 7.646 7.646 11.17 18.542 9.922 30.682-.282 2.747 1.716 5.203 4.462 5.485zm-24.093-26.458s0 0 0 0c3.507 3.506 5.438 8.168 5.438 13.127s-1.932 9.621-5.438 13.127c-3.618 3.619-8.373 5.428-13.126 5.428-4.755 0-9.508-1.809-13.127-5.428-3.507-3.506-5.438-8.168-5.438-13.127s1.932-9.621 5.438-13.127 8.168-5.438 13.127-5.438 9.62 1.931 13.126 5.438zm-4.562 13.127c0-2.288-.892-4.438-2.509-6.056-1.618-1.618-3.769-2.509-6.056-2.509s-4.438.891-6.057 2.508c-1.618 1.618-2.509 3.769-2.509 6.057s.891 4.438 2.509 6.056c3.34 3.339 8.772 3.341 12.112 0 1.617-1.618 2.509-3.769 2.509-6.056zm275.488-59.286c15.344 32.406 17.025 62.452 4.864 86.89-13.075 26.276-41.632 45.09-82.749 54.589l3.86 17.657c.412 1.886-.298 3.841-1.825 5.022-.894.691-1.974 1.045-3.061 1.045-.771 0-1.545-.178-2.26-.54l-64.112-32.494c-1.34-.679-2.303-1.925-2.624-3.392-.32-1.467.035-3.001.97-4.177l44.702-56.285c1.2-1.511 3.159-2.196 5.045-1.761 1.881.437 3.342 1.917 3.755 3.803l4.149 18.978c53.197-8.061 79.301-36.637 79.767-87.241.021-2.331 1.65-4.337 3.926-4.837 2.275-.502 4.596.637 5.593 2.744zm-1.412 23.977c-7.627 43.716-38.194 69.212-91.143 75.906-2.565.326-4.959-1.364-5.512-3.893l-2.888-13.209-34.341 43.238 49.252 24.962-2.679-12.248c-.285-1.304-.037-2.668.689-3.788.727-1.12 1.87-1.903 3.177-2.175 40.661-8.459 68.59-25.865 80.768-50.336 8.306-16.692 9.17-36.626 2.676-58.458zm-373.691-97.655c-15.344-32.406-17.025-62.452-4.864-86.89 13.075-26.276 41.632-45.09 82.749-54.589l-3.86-17.657c-.412-1.886.298-3.841 1.825-5.022s3.598-1.377 5.32-.505l64.112 32.494c1.34.679 2.303 1.925 2.624 3.392.32 1.467-.035 3.001-.97 4.177l-44.702 56.285c-1.201 1.511-3.16 2.197-5.045 1.761-1.881-.437-3.342-1.917-3.755-3.803l-4.149-18.978c-53.197 8.061-79.301 36.637-79.767 87.241-.021 2.331-1.65 4.337-3.926 4.837-.359.079-.72.117-1.076.117-1.899 0-3.678-1.087-4.517-2.861zm1.412-23.977c7.627-43.716 38.194-69.212 91.143-75.906 2.566-.322 4.959 1.364 5.512 3.893l2.888 13.209 34.341-43.239-49.252-24.962 2.679 12.248c.285 1.304.037 2.668-.689 3.788-.727 1.12-1.87 1.903-3.177 2.175-40.661 8.459-68.59 25.865-80.768 50.336-8.306 16.692-9.17 36.626-2.676 58.458z"/></svg>