<?xml version="1.0" encoding="UTF-8"?>
<svg xmlns="http://www.w3.org/2000/svg" viewBox="0 0 512 512" width="512" height="512" fill="#ffffff"><g id="OUTLINE"><rect x="112" y="440" width="16" height="16"/><rect x="384" y="440" width="16" height="16"/><path d="M391.94873,317.75781A87.85645,87.85645,0,0,0,344.7041,304H261.62793a88.09151,88.09151,0,0,0-44.34033,11.9873l-77.31836,45.10254A7.99991,7.99991,0,0,0,144,376H374.98877a31.59035,31.59035,0,0,0,16.96-58.24219ZM296,360H173.59131l51.75781-30.19238A72.08092,72.08092,0,0,1,261.62793,320H296Zm93.95752-11.23193A15.13069,15.13069,0,0,1,374.98877,360H312V320h32.7041a71.88573,71.88573,0,0,1,38.65528,11.25684A15.12863,15.12863,0,0,1,389.95752,348.76807Z"/><rect x="264" y="392" width="32" height="16"/><path d="M476.70654,325.583l-25.77881-5.15576-52.21044-31.32618A120.02594,120.02594,0,0,0,336.978,272H260.38477a120.359,120.359,0,0,0-57.15332,14.48535L67.15723,360.19189a88.2087,88.2087,0,0,0-43.46,56.03418l-7.4585,29.8335A8.0001,8.0001,0,0,0,24,456H72.67938a47.99051,47.99051,0,0,0,94.64124,0H344.67944a47.99044,47.99044,0,0,0,94.64112,0H440a56.06353,56.06353,0,0,0,56-56V349.1167A24.06447,24.06447,0,0,0,476.70654,325.583ZM69.87091,377.2063A7.93807,7.93807,0,0,1,72,382.62744V384a8.00917,8.00917,0,0,1-8,8H53.37646A72.06428,72.06428,0,0,1,69.87091,377.2063ZM120,480a32,32,0,1,1,32-32A32.036,32.036,0,0,1,120,480Zm272,0a32,32,0,1,1,32-32A32.036,32.036,0,0,1,392,480Zm88-80a40.04521,40.04521,0,0,1-40,40h-.67944a47.99044,47.99044,0,0,0-94.64112,0H167.32062a47.99051,47.99051,0,0,0-94.64124,0H34.24609l4.97364-19.89307A71.62024,71.62024,0,0,1,43.4552,408H64a24.02687,24.02687,0,0,0,24-24v-1.37256a23.82961,23.82961,0,0,0-4.04156-13.34021l126.89361-68.73352A104.31138,104.31138,0,0,1,260.38477,288H336.978a104.0256,104.0256,0,0,1,53.50781,14.8208l53.39795,32.03906a8.01335,8.01335,0,0,0,2.54736.98487L465.10657,339.58l-10.07678,10.07678A23.843,23.843,0,0,0,448,366.62744V368a24.02687,24.02687,0,0,0,24,24h8Zm0-24h-8a8.00917,8.00917,0,0,1-8-8v-1.37256a7.94834,7.94834,0,0,1,2.34326-5.65723L479.825,347.48853A7.93326,7.93326,0,0,1,480,349.1167Z"/><path d="M248,62.6239V256h16V62.6239a24,24,0,1,0-16,0ZM256,32a8,8,0,1,1-8,8A8.00917,8.00917,0,0,1,256,32Z"/><path d="M184,86.6239V176a7.99877,7.99877,0,0,0,2.34326,5.65674L208,203.314V264h16V200a7.99877,7.99877,0,0,0-2.34326-5.65674L200,172.686V86.6239a24,24,0,1,0-16,0ZM192,56a8,8,0,1,1-8,8A8.00917,8.00917,0,0,1,192,56Z"/><path d="M88,112a23.854,23.854,0,0,0,10.34106-2.34546L152,163.314V288h16V160a7.99877,7.99877,0,0,0-2.34326-5.65674l-56.0022-56.0022A23.998,23.998,0,1,0,88,112Zm0-32a8,8,0,1,1-8,8A8.00917,8.00917,0,0,1,88,80Z"/><path d="M56,192a23.85567,23.85567,0,0,0,10.34106-2.34546L104,227.31348V320h16V224a7.99877,7.99877,0,0,0-2.34326-5.65674l-40.0022-40.0022A23.998,23.998,0,1,0,56,192Zm0-32a8,8,0,1,1-8,8A8.00917,8.00917,0,0,1,56,160Z"/><path d="M40,301.22656a23.87849,23.87849,0,0,0,8.39471-1.51831l33.94855,33.94849,11.31348-11.31348-32.96991-32.97A23.99213,23.99213,0,1,0,40,301.22656Zm0-32a8,8,0,1,1-8,8A8.00917,8.00917,0,0,1,40,269.22656Z"/><path d="M304,203.314l21.65674-21.65722A7.99877,7.99877,0,0,0,328,176V86.6239a24,24,0,1,0-16,0V172.686l-21.65674,21.65722A7.99877,7.99877,0,0,0,288,200v56h16ZM320,56a8,8,0,1,1-8,8A8.00917,8.00917,0,0,1,320,56Z"/><path d="M344,160v96h16V163.314l53.65894-53.65942a24.009,24.009,0,1,0-11.31348-11.31348l-56.0022,56.0022A7.99877,7.99877,0,0,0,344,160Zm80-80a8,8,0,1,1-8,8A8.00917,8.00917,0,0,1,424,80Z"/><path d="M432,168a23.85567,23.85567,0,0,0,2.34546,10.34106l-40.0022,40.0022A7.99877,7.99877,0,0,0,392,224v48h16V227.31348l37.65894-37.65894A23.998,23.998,0,1,0,432,168Zm24-8a8,8,0,1,1-8,8A8.00917,8.00917,0,0,1,456,160Z"/><path d="M448,248a23.84483,23.84483,0,0,0,3.079,11.74l-24.474,22.35278,10.79,11.81446,25.81811-23.58045A23.99593,23.99593,0,1,0,448,248Zm32,0a8,8,0,1,1-8-8A8.00917,8.00917,0,0,1,480,248Z"/></g></svg>
