<?xml version="1.0"?>
<svg xmlns="http://www.w3.org/2000/svg" viewBox="0 0 64 64" fill="#ffffff"><g data-name="12 Robotic arm" id="_12_Robotic_arm"><g><path d="M4,28a3,3,0,1,0,3-3A3,3,0,0,0,4,28Zm4,0a1,1,0,1,1-1-1A1,1,0,0,1,8,28Z"/><path d="M63,8H61a3,3,0,0,1,0-6h2a1,1,0,0,0,0-2H61a5.009,5.009,0,0,0-4.9,4H53.9A5.009,5.009,0,0,0,49,0H29a.149.149,0,0,0-.018,0c-.024,0-.049,0-.074,0a5.961,5.961,0,0,0-4.242,1.757L9.13,17.293a1,1,0,1,0,1.414,1.414L26.08,3.171a4.1,4.1,0,0,1,5.657,0,4,4,0,0,1,0,5.658L14.768,25.8,11.95,22.979a7,7,0,0,0-9.9,9.9L12.2,43.026A10.941,10.941,0,0,0,11.444,47v1H11a3,3,0,0,0-3,3v3a1,1,0,0,0,2,0V51a1,1,0,0,1,1-1H33a1,1,0,0,1,1,1V62H10V58a1,1,0,0,0-2,0v5a1,1,0,0,0,1,1H35a1,1,0,0,0,1-1V51a3,3,0,0,0-2.556-2.955V47a10.989,10.989,0,0,0-20.3-5.853L3.464,31.464a5,5,0,0,1,7.072-7.071l9.313,9.314a1,1,0,0,0,1.414-1.414l-5.081-5.082L33.151,10.243A5.988,5.988,0,0,0,33.371,2H49a3,3,0,0,1,0,6H37a1,1,0,0,0,0,2H49a5.009,5.009,0,0,0,4.9-4h2.2A5.009,5.009,0,0,0,61,10h2a1,1,0,0,0,0-2ZM22.444,38a9.011,9.011,0,0,1,9,9v1h-18V47A9.01,9.01,0,0,1,22.444,38Z"/><path d="M54.325,36.943a1,1,0,0,0,1.277-.61,7,7,0,1,0-2.731,3.5,1,1,0,0,0-1.107-1.666,4.985,4.985,0,1,1,1.952-2.5A1,1,0,0,0,54.325,36.943Z"/><path d="M51,47H47.883l-.3-2.4a1,1,0,0,0-.774-.852,9.881,9.881,0,0,1-3.152-1.309,1,1,0,0,0-1.15.055L40.6,43.982l-1.58-1.58L40.5,40.493a1,1,0,0,0,.055-1.15,9.894,9.894,0,0,1-1.309-3.152,1,1,0,0,0-.852-.774l-2.4-.3V32.883l2.4-.3a1,1,0,0,0,.852-.774,9.879,9.879,0,0,1,1.309-3.151,1,1,0,0,0-.055-1.15L39.018,25.6l1.58-1.58L42.507,25.5a1,1,0,0,0,1.15.055,9.894,9.894,0,0,1,3.152-1.309,1,1,0,0,0-.436-1.952A11.829,11.829,0,0,0,43.2,23.506L41.128,21.9a1,1,0,0,0-1.32.082l-2.829,2.829a1,1,0,0,0-.082,1.32L38.506,28.2a11.858,11.858,0,0,0-1.033,2.486l-2.6.325A1,1,0,0,0,34,32v4a1,1,0,0,0,.876.992l2.6.325A11.836,11.836,0,0,0,38.506,39.8L36.9,41.872a1,1,0,0,0,.082,1.32l2.829,2.829a1,1,0,0,0,1.32.083l2.069-1.61a11.88,11.88,0,0,0,2.486,1.033l.325,2.6A1,1,0,0,0,47,49h4a1,1,0,0,0,0-2Z"/><path d="M63.124,31.008l-2.6-.325A11.858,11.858,0,0,0,59.494,28.2L61.1,26.128a1,1,0,0,0-.082-1.32l-2.829-2.829a1,1,0,0,0-1.32-.082L54.8,23.506a11.836,11.836,0,0,0-2.486-1.033l-.325-2.6A1,1,0,0,0,51,19H47a1,1,0,0,0,0,2h3.117l.3,2.4a1,1,0,0,0,.774.852,9.894,9.894,0,0,1,3.152,1.309,1,1,0,0,0,1.15-.055L57.4,24.018l1.58,1.58L57.5,27.508a1,1,0,0,0-.055,1.15,9.879,9.879,0,0,1,1.309,3.151,1,1,0,0,0,.852.774l2.4.3v2.234l-2.4.3a1,1,0,0,0-.852.774,9.894,9.894,0,0,1-1.309,3.152,1,1,0,0,0,.055,1.15L58.982,42.4l-1.58,1.58L55.493,42.5a1,1,0,0,0-1.15-.055,9.881,9.881,0,0,1-3.152,1.309,1,1,0,0,0,.436,1.952A11.842,11.842,0,0,0,54.8,44.494l2.069,1.61a1,1,0,0,0,1.32-.083l2.829-2.829a1,1,0,0,0,.082-1.32L59.494,39.8a11.836,11.836,0,0,0,1.033-2.486l2.6-.325A1,1,0,0,0,64,36V32A1,1,0,0,0,63.124,31.008Z"/></g></g></svg>
